<svg xmlns="http://www.w3.org/2000/svg" viewBox="0 0 2 420"><path fill="#DBD9D6" d="M1.3 0H.5c0 1 .5 1.8.5 2.8.1 1.1-.4 2.4-.5 3.5-.2 2 0 4.2 0 6.2v12.3c0 1 0 1.9.1 2.9.1.9 0 1.8 0 2.8.1 1.8 0 3.6 0 5.5 0 2.1-.2 4.2-.1 6.4.1 1 0 2.1 0 3.1 0 1.2.1 2.3.1 3.4 0 2-.2 3.9-.2 5.8 0 .9-.1 1.8-.1 2.7.1 1.1.1 2.2.1 3.3 0 2.3-.1 4.6-.1 6.9 0 1-.1 1.9-.1 2.9s.1 2.1.1 3.1c0 1.8-.1 3.5-.1 5.3 0 .9.1 1.8-.1 2.7-.1.4-.1.8-.1 1.3.1.6 0 1.2 0 1.7 0 2.2-.2 4.4 0 6.5.2 2.1-.1 4.2-.1 6.4.1 4.5.1 9.1.2 13.6.1 4.7-.2 9.4-.1 14 0 1.9-.2 3.8-.1 5.7.1 2.2.1 4.3.2 6.5.2 4.7-.1 9.5-.1 14.2 0 4.9-.1 9.7-.1 14.6 0 4.7.2 9.5.1 14.2 0 4.5-.1 9-.1 13.5 0 4.3-.1 8.7-.1 13 .1 8.4 0 16.8.1 25.2.1 8.7-.1 17.5 0 26.2v2.9c0 1.3.4-.1.6-.5 0 .6-.1 1.5-.4 2.2 0-.2-.1-.4-.1-.6-.3 3.1-.3 6.4-.1 9.5.1 2.7 0 5.3 0 8 0 1.3.1 2.7.1 4 0 1.2-.1 2.4-.1 3.7 0 2.5.1 5 .1 7.5v11.4c0 .7.2 1.3.3 2 0 .6-.3 1.1-.3 1.8v7.4c0 .7 0 1.4.1 2.1.1.4 0 .5-.1.8-.1.6 0 1.4.1 2.2.1 1.3.1 2.6.1 3.9s.1 2.6.1 3.9c0 .6-.2 1.7 0 2.2.1.1.3.3.3.4.1.3-.2.4-.3.7-.2.5-.1 1.2-.1 1.7v2.3c0 1.4-.1 2.9 0 4.4.2 2.9 0 5.8 0 8.7 0 1.3.1 2.6.1 3.9v1.9c0 .2-.1.9 0 1.1s.4.3.5.6c.1.5-.4 1.3-.5 1.7-.1.5 0 1 0 1.5.1.8 0 1.9.4 2.7 0 .1.2.1.2.4.1.3-.1.8-.2 1.2-.2 1-.4 1.9-.4 2.9 0 1.4.1 2.8.3 4.2.2 1.4-.2 2.7-.3 4.1-.1 1.3.3 2.6.1 4-.1 1.5-.4 2.9-.3 4.4.1 1.8.3 3.6.5 5.3.1.8.3 1.7.2 2.5-.1.7-.5 1.3-.5 2s.2 1.4.2 2.2c0 .7-.2 1.3-.2 2s.3 1.4.3 2.1c0 .7-.1 1.5-.2 2.3-.1.9-.1 1.7-.1 2.6 0 .5-.1.5.2.8.1.1.5.3.5.5s-.5.6-.6.8c-.2.4-.1 1.3-.1 1.8 0 1.7.2 3.3 0 5-.1.9 0 1.7 0 2.5.3.7.2 1.4.2 2.1.2 0 .9.1 1 0 .3-.2 0-1.9 0-2.3V412c.1-4 .1-8 .1-12v-31.8c0-1.8.2-3.7.1-5.5 0-.8-.4-1.5-.2-2.3.1-.8.1-1.6.1-2.4v-2.2c0-.9-.2-1.7-.3-2.6 0-.9.3-1.7.3-2.6v-3c0-2-.1-3.9-.3-5.8-.2-2.1.2-4.1.2-6.1 0-.6-.5-1.3-.4-1.9 0-.3.3-.5.3-.8.1-.4 0-1 0-1.4 0-1.8.4-3.8-.1-5.4-.2-.6.1-1 .2-1.7v-2.3c0-3.9-.1-7.8-.1-11.7 0-2.8-.2-5.6 0-8.4.2-2.4-.2-4.7 0-7.1.2-2.9 0-5.9 0-8.9 0-1.9-.1-3.9-.2-5.8s.2-3.8.2-5.6c0-1-.1-1.9-.1-2.9 0-.5-.1-1-.1-1.6 0-.5.2-1 .1-1.5-.1-1.6-.2-3.3-.2-5 .2-3.4 0-6.8 0-10.3 0-7.8 0-15.7-.1-23.5v-17.7c0-6.2-.4-12.4 0-18.6 0-.8.1-1.5 0-2.3-.1-.9.1-1.8.1-2.7-.1-1.9-.1-3.7-.1-5.6 0-3.7.1-7.4.1-11.1 0-2.7.1-5.4 0-8.1-.2-3.8.3-7.6.2-11.5-.1-3.3.1-6.6.1-9.9 0-.9-.1-1.9-.1-2.8 0-1 .1-2.1.1-3.1 0-2.1 0-4.1-.1-6.2-.1-3.1.2-6.3 0-9.4-.1-1.4-.5-2.9-.5-4.3 0-1.8.5-3.6.5-5.4-.1-2.5.1-5.1 0-7.7-.1-1.5-.4-3-.5-4.5 0-.4-.2-1-.1-1.4.1-.3.3-.5.5-.8.4-.7.2-1.8.2-2.6 0-3.9-.3-7.8 0-11.7.1-1.8.2-3.7.1-5.4-.1-1.6 0-3.1 0-4.7v-6.1c0-1.7 0-3.5.1-5.2.1-.8 0-1.7 0-2.5 0-.9.1-1.7.1-2.6 0-1.7-.1-3.3 0-5 .3-7.9.2-15.7.2-23.6-.1-8 .1-16 0-24 0-1 0-1.9-.2-2.9 0-.3 0-.6-.4-.5-.2.1 0 .4 0 .7 0 .6 0 1 .3 1.6.1.4.4.9.4 1.4-1.2-.6-.9-2.6-.7-3.7zm-.1 381.4c0 .3-.1.4-.2.7 0-.3-.2-.7.2-.7zm-.4-52c.2-.1 0 .7.1.8.1 0 .5.1.6 0 0 .4-.6.4-.5.9 0 0 .3.4.3.5 0 .2-.4.4-.5.7-.1-.6-.6-1-.7-1.6-.1-.6.5-1.1.5-1.7 0 .3.1.6.1.9.1-.1.1-.3.1-.5zm.5-262.3c0 1.2-.4 2.3-.5 3.5-.1-.8 0-1.7 0-2.4.1-.8-.1-1.6-.1-2.4v-2.2c0-.7.1-.9.6-1.3.1 1.5 0 3.1 0 4.8zm.2-8.5c-.1.4-.5.2-.5.5-.1-.6-.4-1.5-.2-2.1.2.5.6 1 .7 1.6zm.1-13.1c0 1-.3 2-.4 3-.2 1.2-.1 2.4-.1 3.5 0 1.8.5 3.6.4 5.4L1 56.2c-.2-.6-.2-1.2-.1-1.8 0-1.2.2-2.8.2-3.8v-1.1c0-.1-.1-.3-.1-.4-.1-.2-.1-.3.1-.4.1-.7 0-1.4 0-2.1v-2.4c0-.3 0-2 .2-2.1-.1 1.3.3 2.3.3 3.4zm-.1-10.7c-.2-.5-.6-1.1-.5-1.6.3-.4.7-.7 1-1.2.1.8-.3 2-.5 2.8zM2 9.6c0 1.9-.7 3.7-.7 5.6v1.7c0 .4-.2.9-.1 1.3.1.3.6.8.6 1-.1.3-.5 0-.6.2 0-.2.1-1.7-.2-.8 0-.7-.1-.9-.1-1.5 0 .1.1.2.1.4 0-1.7.1-3.4.1-5.1 0-.5-.2-1.7.1-2.1.1-.2.6-.7.8-.7z"/></svg>