<?xml version="1.0" standalone="no"?>
<!DOCTYPE svg PUBLIC "-//W3C//DTD SVG 20010904//EN"
 "http://www.w3.org/TR/2001/REC-SVG-20010904/DTD/svg10.dtd">
<svg version="1.0" xmlns="http://www.w3.org/2000/svg"
 width="750.000000pt" height="750.000000pt" viewBox="0 0 750.000000 750.000000"
 preserveAspectRatio="xMidYMid meet">
<metadata>
Created by potrace 1.14, written by Peter Selinger 2001-2017
</metadata>
<g transform="translate(0.000000,750.000000) scale(0.100000,-0.100000)"
fill="#000000" stroke="none">
<path d="M3509 7466 c-2 -2 -44 -7 -94 -11 -49 -3 -99 -8 -110 -10 -11 -3 -42
-7 -70 -10 -121 -14 -343 -60 -485 -100 -888 -250 -1652 -819 -2146 -1597 -73
-115 -244 -439 -274 -518 -7 -19 -19 -48 -26 -65 -62 -144 -164 -467 -188
-597 -2 -15 -12 -63 -20 -105 -47 -235 -61 -392 -61 -693 0 -292 3 -340 41
-605 11 -76 44 -235 74 -347 181 -697 575 -1342 1115 -1828 319 -287 713 -532
1095 -682 41 -16 84 -33 95 -38 11 -5 70 -25 130 -45 226 -74 527 -140 730
-160 33 -4 74 -9 90 -12 54 -9 558 -11 650 -2 84 8 114 11 220 25 89 11 317
57 422 85 873 232 1629 769 2137 1517 350 517 566 1123 623 1754 16 167 7 704
-12 778 -2 8 -6 38 -10 65 -11 94 -56 320 -86 432 -68 257 -147 466 -270 713
-240 482 -575 899 -999 1241 -438 353 -974 611 -1510 729 -74 16 -151 32 -170
35 -19 3 -46 8 -60 10 -25 5 -45 8 -155 20 -33 4 -71 9 -85 12 -30 6 -585 15
-591 9z"/>
<path d="M6510 505 c0 -22 4 -25 35 -25 l34 0 0 -87 c-1 -49 0 -94 0 -100 1
-8 14 -13 31 -13 l30 0 0 100 0 100 35 0 c31 0 35 3 35 25 l0 25 -100 0 -100
0 0 -25z"/>
<path d="M6771 406 l0 -126 33 0 33 0 -2 75 c-1 42 2 72 6 68 4 -4 19 -37 32
-73 13 -36 31 -66 39 -68 11 -2 24 21 46 80 l31 83 0 -82 1 -83 30 0 c20 0 30
5 30 15 1 8 1 53 1 100 0 150 5 135 -45 135 l-44 0 -24 -72 -24 -72 -26 70
-26 69 -46 3 -46 3 1 -125z"/>
</g>
</svg>
